<?xml version="1.0" encoding="UTF-8"?>
<svg xmlns="http://www.w3.org/2000/svg" xmlns:xlink="http://www.w3.org/1999/xlink" width="1280" height="720" viewBox="0 0 1280 720">
<defs>
<g>
<g id="glyph-0-0">
<path d="M 0.632812 -1.878906 L 0.828125 -1.878906 C 0.921875 -1.425781 1.042969 -1.078125 1.199219 -0.835938 C 1.476562 -0.390625 1.886719 -0.167969 2.421875 -0.167969 C 2.722656 -0.167969 2.957031 -0.25 3.128906 -0.414062 C 3.304688 -0.578125 3.390625 -0.792969 3.390625 -1.054688 C 3.390625 -1.222656 3.339844 -1.382812 3.242188 -1.539062 C 3.140625 -1.695312 2.964844 -1.847656 2.714844 -1.992188 L 2.046875 -2.375 C 1.558594 -2.636719 1.199219 -2.902344 0.96875 -3.167969 C 0.738281 -3.433594 0.621094 -3.75 0.621094 -4.113281 C 0.621094 -4.558594 0.78125 -4.921875 1.097656 -5.210938 C 1.417969 -5.496094 1.816406 -5.640625 2.296875 -5.640625 C 2.507812 -5.640625 2.742188 -5.601562 2.992188 -5.519531 C 3.246094 -5.441406 3.386719 -5.402344 3.417969 -5.402344 C 3.492188 -5.402344 3.542969 -5.410156 3.574219 -5.429688 C 3.605469 -5.449219 3.632812 -5.484375 3.660156 -5.527344 L 3.800781 -5.527344 L 3.84375 -3.863281 L 3.660156 -3.863281 C 3.578125 -4.246094 3.472656 -4.546875 3.335938 -4.761719 C 3.089844 -5.160156 2.734375 -5.359375 2.269531 -5.359375 C 1.988281 -5.359375 1.769531 -5.273438 1.613281 -5.101562 C 1.453125 -4.929688 1.371094 -4.730469 1.371094 -4.5 C 1.371094 -4.132812 1.648438 -3.808594 2.195312 -3.519531 L 2.984375 -3.097656 C 3.832031 -2.636719 4.253906 -2.097656 4.253906 -1.484375 C 4.253906 -1.015625 4.078125 -0.632812 3.726562 -0.335938 C 3.375 -0.0351562 2.914062 0.113281 2.34375 0.113281 C 2.105469 0.113281 1.835938 0.0742188 1.535156 -0.0078125 C 1.230469 -0.0859375 1.050781 -0.125 0.996094 -0.125 C 0.949219 -0.125 0.90625 -0.109375 0.871094 -0.0742188 C 0.835938 -0.0390625 0.808594 0 0.789062 0.046875 L 0.632812 0.046875 Z "/>
</g>
<g id="glyph-0-1">
<path d="M 3.503906 -3.304688 C 3.046875 -3.15625 2.667969 -2.988281 2.371094 -2.804688 C 1.796875 -2.449219 1.511719 -2.050781 1.511719 -1.597656 C 1.511719 -1.238281 1.628906 -0.972656 1.867188 -0.800781 C 2.023438 -0.6875 2.195312 -0.632812 2.386719 -0.632812 C 2.648438 -0.632812 2.902344 -0.707031 3.140625 -0.851562 C 3.382812 -1 3.503906 -1.1875 3.503906 -1.414062 Z M 0.449219 -1.1875 C 0.449219 -1.765625 0.734375 -2.246094 1.3125 -2.632812 C 1.679688 -2.871094 2.410156 -3.195312 3.503906 -3.605469 L 3.503906 -4.113281 C 3.503906 -4.519531 3.464844 -4.800781 3.382812 -4.960938 C 3.25 -5.226562 2.96875 -5.359375 2.542969 -5.359375 C 2.339844 -5.359375 2.148438 -5.308594 1.964844 -5.203125 C 1.78125 -5.097656 1.6875 -4.949219 1.6875 -4.761719 C 1.6875 -4.714844 1.699219 -4.632812 1.71875 -4.519531 C 1.738281 -4.40625 1.75 -4.335938 1.75 -4.304688 C 1.75 -4.082031 1.675781 -3.925781 1.527344 -3.835938 C 1.445312 -3.785156 1.34375 -3.761719 1.230469 -3.761719 C 1.050781 -3.761719 0.914062 -3.820312 0.816406 -3.9375 C 0.722656 -4.054688 0.675781 -4.183594 0.675781 -4.328125 C 0.675781 -4.605469 0.847656 -4.898438 1.191406 -5.203125 C 1.535156 -5.507812 2.039062 -5.65625 2.703125 -5.65625 C 3.476562 -5.65625 4 -5.40625 4.273438 -4.90625 C 4.421875 -4.632812 4.492188 -4.230469 4.492188 -3.707031 L 4.492188 -1.3125 C 4.492188 -1.082031 4.511719 -0.921875 4.542969 -0.835938 C 4.59375 -0.679688 4.699219 -0.601562 4.863281 -0.601562 C 4.957031 -0.601562 5.03125 -0.617188 5.089844 -0.644531 C 5.148438 -0.671875 5.253906 -0.738281 5.402344 -0.847656 L 5.402344 -0.539062 C 5.273438 -0.382812 5.136719 -0.253906 4.988281 -0.15625 C 4.765625 -0.00390625 4.539062 0.0703125 4.308594 0.0703125 C 4.039062 0.0703125 3.84375 -0.015625 3.722656 -0.191406 C 3.601562 -0.367188 3.53125 -0.574219 3.519531 -0.816406 C 3.21875 -0.554688 2.960938 -0.359375 2.746094 -0.234375 C 2.382812 -0.0195312 2.039062 0.0898438 1.710938 0.0898438 C 1.371094 0.0898438 1.074219 -0.03125 0.824219 -0.273438 C 0.574219 -0.511719 0.449219 -0.816406 0.449219 -1.1875 Z "/>
</g>
<g id="glyph-0-2">
<path d="M 3.109375 -5.503906 L 3.109375 -5.074219 L 1.890625 -5.074219 L 1.878906 -1.636719 C 1.878906 -1.332031 1.90625 -1.105469 1.957031 -0.949219 C 2.054688 -0.675781 2.238281 -0.539062 2.519531 -0.539062 C 2.660156 -0.539062 2.785156 -0.570312 2.890625 -0.636719 C 2.996094 -0.707031 3.117188 -0.8125 3.253906 -0.960938 L 3.40625 -0.828125 L 3.277344 -0.652344 C 3.070312 -0.371094 2.851562 -0.175781 2.621094 -0.0585938 C 2.390625 0.0546875 2.167969 0.113281 1.953125 0.113281 C 1.484375 0.113281 1.164062 -0.09375 0.996094 -0.511719 C 0.90625 -0.738281 0.859375 -1.054688 0.859375 -1.457031 L 0.859375 -5.074219 L 0.207031 -5.074219 C 0.1875 -5.085938 0.175781 -5.097656 0.164062 -5.109375 C 0.152344 -5.121094 0.148438 -5.136719 0.148438 -5.15625 C 0.148438 -5.195312 0.15625 -5.226562 0.175781 -5.25 C 0.195312 -5.269531 0.25 -5.320312 0.347656 -5.402344 C 0.621094 -5.628906 0.820312 -5.8125 0.941406 -5.953125 C 1.0625 -6.09375 1.347656 -6.46875 1.796875 -7.070312 C 1.847656 -7.070312 1.878906 -7.066406 1.890625 -7.058594 C 1.898438 -7.050781 1.902344 -7.023438 1.902344 -6.972656 L 1.902344 -5.503906 Z "/>
</g>
</g>
</defs>
<g fill="rgb(100%, 100%, 0%)" fill-opacity="1">
<use xlink:href="#glyph-0-0" x="30" y="29.166992"/>
<use xlink:href="#glyph-0-1" x="35" y="29.166992"/>
<use xlink:href="#glyph-0-2" x="40" y="29.166992"/>
</g>
</svg>
