<?xml version="1.0" encoding="UTF-8"?>
<svg xmlns="http://www.w3.org/2000/svg" xmlns:xlink="http://www.w3.org/1999/xlink" width="1280" height="720" viewBox="0 0 1280 720">
<defs>
<g>
<g id="glyph-0-0">
<path d="M 3.15625 -6.761719 C 3.15625 -6.492188 3.0625 -6.269531 2.875 -6.097656 C 2.6875 -5.929688 2.476562 -5.84375 2.238281 -5.84375 C 1.976562 -5.84375 1.761719 -5.933594 1.59375 -6.121094 C 1.425781 -6.304688 1.34375 -6.515625 1.34375 -6.753906 C 1.34375 -7.003906 1.429688 -7.21875 1.601562 -7.394531 C 1.777344 -7.570312 1.988281 -7.65625 2.238281 -7.65625 C 2.476562 -7.65625 2.691406 -7.574219 2.875 -7.402344 C 3.0625 -7.230469 3.15625 -7.019531 3.15625 -6.761719 Z M 2.214844 0.136719 C 1.984375 0.136719 1.785156 0.0507812 1.605469 -0.128906 C 1.429688 -0.308594 1.34375 -0.527344 1.34375 -0.78125 C 1.34375 -1.027344 1.429688 -1.238281 1.601562 -1.421875 C 1.777344 -1.601562 1.992188 -1.691406 2.246094 -1.691406 C 2.5 -1.691406 2.722656 -1.605469 2.914062 -1.429688 C 3.105469 -1.253906 3.199219 -1.039062 3.199219 -0.789062 C 3.199219 -0.550781 3.109375 -0.335938 2.929688 -0.148438 C 2.75 0.0429688 2.511719 0.136719 2.214844 0.136719 Z "/>
</g>
<g id="glyph-0-1">
<path d="M 0.0585938 -10.351562 L 0.0585938 -10.628906 C 0.675781 -10.769531 1.230469 -10.925781 1.726562 -11.101562 C 2.21875 -11.273438 2.484375 -11.359375 2.523438 -11.359375 C 2.535156 -11.328125 2.539062 -11.296875 2.539062 -11.261719 L 2.539062 -6.308594 C 2.679688 -6.566406 2.890625 -6.8125 3.175781 -7.046875 C 3.671875 -7.453125 4.25 -7.65625 4.898438 -7.65625 C 5.695312 -7.65625 6.378906 -7.320312 6.941406 -6.648438 C 7.507812 -5.976562 7.789062 -5.101562 7.789062 -4.027344 C 7.789062 -2.878906 7.421875 -1.894531 6.691406 -1.074219 C 5.957031 -0.253906 4.992188 0.15625 3.800781 0.15625 C 3.199219 0.15625 2.605469 0.0351562 2.027344 -0.203125 C 1.445312 -0.441406 1.15625 -0.679688 1.15625 -0.917969 L 1.15625 -9.523438 C 1.15625 -9.835938 1.113281 -10.058594 1.027344 -10.191406 C 0.9375 -10.324219 0.738281 -10.390625 0.421875 -10.390625 Z M 2.507812 -1.1875 C 2.554688 -0.90625 2.765625 -0.703125 3.140625 -0.582031 C 3.515625 -0.460938 3.84375 -0.398438 4.125 -0.398438 C 4.886719 -0.398438 5.449219 -0.683594 5.816406 -1.253906 C 6.179688 -1.824219 6.363281 -2.511719 6.363281 -3.320312 C 6.363281 -4.128906 6.191406 -4.875 5.851562 -5.5625 C 5.507812 -6.25 4.957031 -6.59375 4.191406 -6.59375 C 3.804688 -6.59375 3.429688 -6.472656 3.058594 -6.238281 C 2.691406 -6.003906 2.507812 -5.703125 2.507812 -5.339844 Z "/>
</g>
<g id="glyph-0-2">
<path d="M 2.578125 -7.535156 L 2.578125 -2.328125 C 2.578125 -1.957031 2.632812 -1.664062 2.734375 -1.441406 C 2.933594 -1.027344 3.304688 -0.820312 3.839844 -0.820312 C 4.210938 -0.820312 4.570312 -0.945312 4.921875 -1.1875 C 5.125 -1.324219 5.328125 -1.511719 5.535156 -1.75 L 5.535156 -6.210938 C 5.535156 -6.628906 5.453125 -6.902344 5.289062 -7.03125 C 5.125 -7.160156 4.800781 -7.242188 4.3125 -7.265625 L 4.3125 -7.535156 L 6.941406 -7.535156 L 6.941406 -1.808594 C 6.941406 -1.4375 7.007812 -1.183594 7.140625 -1.046875 C 7.273438 -0.90625 7.554688 -0.847656 7.984375 -0.863281 L 7.984375 -0.636719 C 7.683594 -0.554688 7.464844 -0.492188 7.324219 -0.453125 C 7.183594 -0.410156 6.949219 -0.335938 6.617188 -0.226562 C 6.476562 -0.179688 6.167969 -0.0625 5.6875 0.121094 C 5.660156 0.121094 5.644531 0.109375 5.640625 0.0859375 C 5.632812 0.0625 5.632812 0.03125 5.632812 0 L 5.632812 -1.308594 C 5.261719 -0.871094 4.925781 -0.546875 4.621094 -0.332031 C 4.160156 -0.0078125 3.671875 0.15625 3.15625 0.15625 C 2.683594 0.15625 2.242188 -0.0117188 1.824219 -0.351562 C 1.398438 -0.679688 1.1875 -1.238281 1.1875 -2.019531 L 1.1875 -6.242188 C 1.1875 -6.675781 1.097656 -6.964844 0.910156 -7.113281 C 0.792969 -7.207031 0.539062 -7.269531 0.148438 -7.308594 L 0.148438 -7.535156 Z "/>
</g>
<g id="glyph-0-3">
<path d="M 0.863281 -2.5625 L 1.132812 -2.5625 C 1.257812 -1.945312 1.425781 -1.46875 1.636719 -1.140625 C 2.015625 -0.53125 2.570312 -0.226562 3.304688 -0.226562 C 3.710938 -0.226562 4.03125 -0.339844 4.269531 -0.566406 C 4.503906 -0.792969 4.621094 -1.082031 4.621094 -1.441406 C 4.621094 -1.667969 4.554688 -1.886719 4.417969 -2.101562 C 4.28125 -2.3125 4.042969 -2.515625 3.703125 -2.71875 L 2.792969 -3.238281 C 2.125 -3.597656 1.632812 -3.957031 1.320312 -4.320312 C 1.003906 -4.683594 0.847656 -5.113281 0.847656 -5.605469 C 0.847656 -6.214844 1.0625 -6.714844 1.496094 -7.105469 C 1.929688 -7.496094 2.476562 -7.691406 3.132812 -7.691406 C 3.421875 -7.691406 3.738281 -7.636719 4.082031 -7.527344 C 4.425781 -7.417969 4.621094 -7.363281 4.664062 -7.363281 C 4.761719 -7.363281 4.832031 -7.378906 4.875 -7.40625 C 4.917969 -7.433594 4.957031 -7.476562 4.988281 -7.535156 L 5.183594 -7.535156 L 5.242188 -5.265625 L 4.988281 -5.265625 C 4.878906 -5.792969 4.734375 -6.203125 4.550781 -6.496094 C 4.214844 -7.039062 3.726562 -7.308594 3.09375 -7.308594 C 2.714844 -7.308594 2.414062 -7.191406 2.199219 -6.957031 C 1.980469 -6.722656 1.871094 -6.449219 1.871094 -6.136719 C 1.871094 -5.636719 2.246094 -5.191406 2.996094 -4.800781 L 4.070312 -4.222656 C 5.226562 -3.59375 5.800781 -2.863281 5.800781 -2.027344 C 5.800781 -1.386719 5.5625 -0.863281 5.082031 -0.457031 C 4.601562 -0.0507812 3.972656 0.15625 3.199219 0.15625 C 2.875 0.15625 2.503906 0.101562 2.089844 -0.0078125 C 1.679688 -0.117188 1.433594 -0.171875 1.359375 -0.171875 C 1.292969 -0.171875 1.238281 -0.148438 1.1875 -0.101562 C 1.140625 -0.0546875 1.101562 0 1.074219 0.0664062 L 0.863281 0.0664062 Z "/>
</g>
<g id="glyph-0-4">
<path d="M 4.238281 -7.503906 L 4.238281 -6.917969 L 2.578125 -6.917969 L 2.5625 -2.230469 C 2.5625 -1.816406 2.597656 -1.503906 2.667969 -1.292969 C 2.800781 -0.917969 3.054688 -0.734375 3.433594 -0.734375 C 3.628906 -0.734375 3.800781 -0.777344 3.941406 -0.871094 C 4.085938 -0.964844 4.25 -1.109375 4.433594 -1.308594 L 4.648438 -1.132812 L 4.46875 -0.886719 C 4.1875 -0.507812 3.886719 -0.238281 3.574219 -0.0820312 C 3.257812 0.0742188 2.953125 0.15625 2.660156 0.15625 C 2.019531 0.15625 1.585938 -0.128906 1.359375 -0.699219 C 1.234375 -1.007812 1.171875 -1.4375 1.171875 -1.984375 L 1.171875 -6.917969 L 0.285156 -6.917969 C 0.257812 -6.933594 0.238281 -6.949219 0.222656 -6.964844 C 0.210938 -6.980469 0.203125 -7.003906 0.203125 -7.03125 C 0.203125 -7.085938 0.214844 -7.128906 0.238281 -7.15625 C 0.265625 -7.1875 0.34375 -7.257812 0.472656 -7.363281 C 0.847656 -7.671875 1.117188 -7.925781 1.28125 -8.117188 C 1.445312 -8.308594 1.835938 -8.820312 2.449219 -9.644531 C 2.519531 -9.644531 2.5625 -9.636719 2.574219 -9.628906 C 2.589844 -9.617188 2.597656 -9.574219 2.597656 -9.503906 L 2.597656 -7.503906 Z "/>
</g>
<g id="glyph-0-5">
<path d="M 0 2.082031 L 0 1.261719 L 8.324219 1.261719 L 8.324219 2.082031 Z "/>
</g>
<g id="glyph-0-6">
<path d="M 1.367188 -10.507812 C 1.367188 -10.738281 1.449219 -10.941406 1.613281 -11.109375 C 1.773438 -11.277344 1.976562 -11.359375 2.214844 -11.359375 C 2.449219 -11.359375 2.644531 -11.277344 2.8125 -11.113281 C 2.976562 -10.949219 3.058594 -10.746094 3.058594 -10.507812 C 3.058594 -10.273438 2.976562 -10.074219 2.8125 -9.910156 C 2.648438 -9.742188 2.445312 -9.660156 2.214844 -9.660156 C 1.976562 -9.660156 1.773438 -9.742188 1.613281 -9.910156 C 1.449219 -10.074219 1.367188 -10.273438 1.367188 -10.507812 Z M 0.324219 -0.226562 C 0.90625 -0.28125 1.273438 -0.382812 1.425781 -0.523438 C 1.578125 -0.667969 1.652344 -1.058594 1.652344 -1.691406 L 1.652344 -5.574219 C 1.652344 -5.925781 1.628906 -6.171875 1.578125 -6.308594 C 1.496094 -6.53125 1.328125 -6.640625 1.066406 -6.640625 C 1.007812 -6.640625 0.949219 -6.636719 0.890625 -6.625 C 0.835938 -6.613281 0.671875 -6.570312 0.398438 -6.496094 L 0.398438 -6.746094 L 0.75 -6.859375 C 1.699219 -7.167969 2.359375 -7.402344 2.734375 -7.558594 C 2.886719 -7.625 2.984375 -7.65625 3.027344 -7.65625 C 3.039062 -7.621094 3.042969 -7.578125 3.042969 -7.535156 L 3.042969 -1.691406 C 3.042969 -1.074219 3.117188 -0.6875 3.265625 -0.527344 C 3.417969 -0.371094 3.753906 -0.269531 4.28125 -0.226562 L 4.28125 0 L 0.324219 0 Z "/>
</g>
<g id="glyph-0-7">
<path d="M 0.300781 -0.226562 C 0.6875 -0.277344 0.957031 -0.371094 1.109375 -0.515625 C 1.265625 -0.660156 1.34375 -0.980469 1.34375 -1.480469 L 1.34375 -5.605469 C 1.34375 -5.953125 1.308594 -6.199219 1.246094 -6.339844 C 1.140625 -6.546875 0.929688 -6.648438 0.609375 -6.648438 C 0.5625 -6.648438 0.511719 -6.644531 0.460938 -6.640625 C 0.410156 -6.636719 0.34375 -6.628906 0.269531 -6.617188 L 0.269531 -6.902344 C 0.492188 -6.964844 1.015625 -7.132812 1.847656 -7.40625 L 2.613281 -7.65625 C 2.652344 -7.65625 2.671875 -7.644531 2.679688 -7.617188 C 2.6875 -7.589844 2.695312 -7.550781 2.695312 -7.503906 L 2.695312 -6.308594 C 3.195312 -6.773438 3.582031 -7.09375 3.867188 -7.265625 C 4.289062 -7.53125 4.726562 -7.667969 5.183594 -7.667969 C 5.554688 -7.667969 5.890625 -7.558594 6.191406 -7.347656 C 6.777344 -6.9375 7.070312 -6.203125 7.070312 -5.144531 L 7.070312 -1.34375 C 7.070312 -0.953125 7.152344 -0.671875 7.308594 -0.496094 C 7.464844 -0.324219 7.730469 -0.234375 8.097656 -0.226562 L 8.097656 0 L 4.621094 0 L 4.621094 -0.226562 C 5.019531 -0.28125 5.296875 -0.390625 5.453125 -0.558594 C 5.609375 -0.722656 5.6875 -1.082031 5.6875 -1.636719 L 5.6875 -5.109375 C 5.6875 -5.578125 5.601562 -5.964844 5.429688 -6.269531 C 5.253906 -6.578125 4.933594 -6.730469 4.46875 -6.730469 C 4.148438 -6.730469 3.820312 -6.621094 3.492188 -6.40625 C 3.308594 -6.28125 3.066406 -6.074219 2.773438 -5.785156 L 2.773438 -1.230469 C 2.773438 -0.839844 2.863281 -0.578125 3.035156 -0.445312 C 3.210938 -0.3125 3.484375 -0.238281 3.859375 -0.226562 L 3.859375 0 L 0.300781 0 Z "/>
</g>
<g id="glyph-0-8">
<path d="M 0.34375 -0.226562 C 0.847656 -0.277344 1.1875 -0.378906 1.367188 -0.53125 C 1.546875 -0.6875 1.636719 -0.988281 1.636719 -1.441406 L 1.636719 -9.390625 C 1.636719 -9.75 1.605469 -9.996094 1.546875 -10.132812 C 1.4375 -10.359375 1.21875 -10.472656 0.886719 -10.472656 C 0.8125 -10.472656 0.726562 -10.464844 0.640625 -10.449219 C 0.550781 -10.433594 0.4375 -10.410156 0.300781 -10.375 L 0.300781 -10.644531 C 1.035156 -10.839844 1.914062 -11.101562 2.945312 -11.425781 C 2.984375 -11.425781 3.007812 -11.410156 3.015625 -11.378906 C 3.023438 -11.34375 3.027344 -11.273438 3.027344 -11.164062 L 3.027344 -1.40625 C 3.027344 -0.933594 3.109375 -0.628906 3.273438 -0.492188 C 3.433594 -0.355469 3.769531 -0.265625 4.28125 -0.226562 L 4.28125 0 L 0.34375 0 Z "/>
</g>
<g id="glyph-0-9">
<path d="M 0.148438 -0.226562 C 0.59375 -0.289062 0.882812 -0.398438 1.019531 -0.558594 C 1.160156 -0.71875 1.230469 -1.097656 1.230469 -1.691406 L 1.230469 -9.503906 C 1.230469 -9.808594 1.191406 -10.03125 1.109375 -10.175781 C 1.03125 -10.320312 0.839844 -10.390625 0.539062 -10.390625 C 0.476562 -10.390625 0.417969 -10.386719 0.363281 -10.378906 C 0.304688 -10.371094 0.242188 -10.363281 0.171875 -10.351562 L 0.171875 -10.644531 C 0.410156 -10.714844 0.703125 -10.800781 1.054688 -10.902344 C 1.402344 -11 1.648438 -11.074219 1.78125 -11.117188 L 2.5625 -11.359375 L 2.578125 -11.304688 L 2.578125 -6.308594 C 2.921875 -6.699219 3.226562 -6.984375 3.492188 -7.167969 C 3.96875 -7.496094 4.484375 -7.65625 5.039062 -7.65625 C 5.917969 -7.65625 6.515625 -7.289062 6.835938 -6.550781 C 7.007812 -6.160156 7.097656 -5.648438 7.097656 -5.011719 L 7.097656 -1.691406 C 7.097656 -1.117188 7.164062 -0.742188 7.296875 -0.570312 C 7.429688 -0.394531 7.703125 -0.28125 8.113281 -0.226562 L 8.113281 0 L 4.589844 0 L 4.589844 -0.226562 C 5.0625 -0.292969 5.367188 -0.402344 5.5 -0.5625 C 5.636719 -0.71875 5.703125 -1.097656 5.703125 -1.691406 L 5.703125 -4.988281 C 5.703125 -5.515625 5.617188 -5.941406 5.441406 -6.265625 C 5.265625 -6.589844 4.933594 -6.753906 4.445312 -6.753906 C 4.019531 -6.753906 3.609375 -6.601562 3.214844 -6.300781 C 2.820312 -5.996094 2.621094 -5.796875 2.621094 -5.703125 L 2.621094 -1.691406 C 2.621094 -1.085938 2.691406 -0.707031 2.832031 -0.554688 C 2.972656 -0.402344 3.273438 -0.292969 3.734375 -0.226562 L 3.734375 0 L 0.148438 0 Z "/>
</g>
<g id="glyph-0-10">
<path d="M 0.421875 -3.777344 C 0.421875 -4.855469 0.765625 -5.769531 1.453125 -6.515625 C 2.140625 -7.261719 3.023438 -7.632812 4.101562 -7.632812 C 5.175781 -7.632812 6.066406 -7.28125 6.769531 -6.574219 C 7.476562 -5.871094 7.828125 -4.933594 7.828125 -3.761719 C 7.828125 -2.679688 7.488281 -1.742188 6.804688 -0.945312 C 6.121094 -0.148438 5.234375 0.253906 4.152344 0.253906 C 3.109375 0.253906 2.226562 -0.128906 1.503906 -0.894531 C 0.785156 -1.660156 0.421875 -2.621094 0.421875 -3.777344 Z M 3.875 -7.144531 C 3.445312 -7.144531 3.074219 -7.003906 2.757812 -6.722656 C 2.214844 -6.230469 1.945312 -5.375 1.945312 -4.167969 C 1.945312 -3.203125 2.164062 -2.300781 2.601562 -1.464844 C 3.039062 -0.628906 3.644531 -0.210938 4.417969 -0.210938 C 5.027344 -0.210938 5.496094 -0.492188 5.824219 -1.050781 C 6.152344 -1.609375 6.316406 -2.339844 6.316406 -3.246094 C 6.316406 -4.183594 6.105469 -5.070312 5.6875 -5.898438 C 5.269531 -6.730469 4.664062 -7.144531 3.875 -7.144531 Z "/>
</g>
<g id="glyph-0-11">
<path d="M 3.816406 -7.632812 C 4.582031 -7.632812 5.25 -7.367188 5.828125 -6.839844 C 6.402344 -6.3125 6.691406 -5.5625 6.691406 -4.589844 L 1.523438 -4.589844 C 1.578125 -3.332031 1.859375 -2.414062 2.375 -1.839844 C 2.890625 -1.265625 3.503906 -0.976562 4.207031 -0.976562 C 4.777344 -0.976562 5.257812 -1.125 5.648438 -1.425781 C 6.039062 -1.722656 6.398438 -2.144531 6.730469 -2.695312 L 7.015625 -2.597656 C 6.792969 -1.90625 6.375 -1.269531 5.765625 -0.683594 C 5.15625 -0.0976562 4.40625 0.195312 3.523438 0.195312 C 2.503906 0.195312 1.714844 -0.191406 1.160156 -0.960938 C 0.605469 -1.730469 0.324219 -2.617188 0.324219 -3.621094 C 0.324219 -4.710938 0.648438 -5.652344 1.292969 -6.445312 C 1.9375 -7.238281 2.78125 -7.632812 3.816406 -7.632812 Z M 3.34375 -7.039062 C 2.726562 -7.039062 2.253906 -6.765625 1.929688 -6.21875 C 1.753906 -5.925781 1.628906 -5.554688 1.554688 -5.109375 L 4.988281 -5.109375 C 4.929688 -5.652344 4.824219 -6.058594 4.679688 -6.324219 C 4.414062 -6.800781 3.96875 -7.039062 3.34375 -7.039062 Z "/>
</g>
</g>
</defs>
<g fill="rgb(100%, 100%, 100%)" fill-opacity="1">
<use xlink:href="#glyph-0-0" x="30" y="32.5"/>
<use xlink:href="#glyph-0-1" x="35" y="32.5"/>
<use xlink:href="#glyph-0-2" x="43" y="32.5"/>
<use xlink:href="#glyph-0-3" x="51" y="32.5"/>
<use xlink:href="#glyph-0-4" x="57" y="32.5"/>
<use xlink:href="#glyph-0-5" x="62" y="32.5"/>
<use xlink:href="#glyph-0-6" x="70" y="32.5"/>
<use xlink:href="#glyph-0-7" x="75" y="32.5"/>
<use xlink:href="#glyph-0-5" x="83" y="32.5"/>
<use xlink:href="#glyph-0-3" x="91" y="32.5"/>
<use xlink:href="#glyph-0-6" x="97" y="32.5"/>
<use xlink:href="#glyph-0-8" x="102" y="32.5"/>
<use xlink:href="#glyph-0-9" x="107" y="32.5"/>
<use xlink:href="#glyph-0-10" x="115" y="32.5"/>
<use xlink:href="#glyph-0-2" x="123" y="32.5"/>
<use xlink:href="#glyph-0-11" x="131" y="32.5"/>
<use xlink:href="#glyph-0-4" x="138" y="32.5"/>
<use xlink:href="#glyph-0-4" x="143" y="32.5"/>
<use xlink:href="#glyph-0-11" x="148" y="32.5"/>
<use xlink:href="#glyph-0-0" x="155" y="32.5"/>
</g>
</svg>
