<?xml version="1.0" encoding="UTF-8"?>
<svg xmlns="http://www.w3.org/2000/svg" xmlns:xlink="http://www.w3.org/1999/xlink" width="1280" height="720" viewBox="0 0 1280 720">
<defs>
<g>
<g id="glyph-0-0">
<path d="M 0.195312 -6.617188 L 5.84375 -6.617188 L 5.898438 -4.917969 L 5.660156 -4.917969 C 5.542969 -5.453125 5.394531 -5.796875 5.210938 -5.960938 C 5.03125 -6.121094 4.652344 -6.203125 4.070312 -6.203125 L 3.515625 -6.203125 L 3.515625 -1.085938 C 3.515625 -0.695312 3.574219 -0.457031 3.695312 -0.363281 C 3.816406 -0.269531 4.082031 -0.210938 4.488281 -0.179688 L 4.488281 0 L 1.570312 0 L 1.570312 -0.179688 C 1.996094 -0.210938 2.257812 -0.28125 2.363281 -0.390625 C 2.46875 -0.5 2.519531 -0.769531 2.519531 -1.203125 L 2.519531 -6.203125 L 1.960938 -6.203125 C 1.410156 -6.203125 1.03125 -6.121094 0.832031 -5.960938 C 0.632812 -5.800781 0.480469 -5.453125 0.382812 -4.917969 L 0.136719 -4.917969 Z "/>
</g>
</g>
</defs>
<g fill="rgb(100%, 100%, 100%)" fill-opacity="1">
<use xlink:href="#glyph-0-0" x="30" y="27.5"/>
</g>
</svg>
