<?xml version="1.0" encoding="UTF-8"?>
<svg xmlns="http://www.w3.org/2000/svg" xmlns:xlink="http://www.w3.org/1999/xlink" width="1280" height="720" viewBox="0 0 1280 720">
<defs>
<g>
<g id="glyph-0-0">
<path d="M 4.777344 -4.507812 C 4.152344 -4.300781 3.636719 -4.074219 3.230469 -3.824219 C 2.449219 -3.34375 2.058594 -2.792969 2.058594 -2.179688 C 2.058594 -1.6875 2.222656 -1.324219 2.546875 -1.089844 C 2.757812 -0.9375 2.996094 -0.863281 3.253906 -0.863281 C 3.613281 -0.863281 3.957031 -0.964844 4.285156 -1.164062 C 4.613281 -1.363281 4.777344 -1.621094 4.777344 -1.929688 Z M 0.609375 -1.621094 C 0.609375 -2.40625 1.003906 -3.0625 1.789062 -3.589844 C 2.289062 -3.914062 3.285156 -4.355469 4.777344 -4.914062 L 4.777344 -5.605469 C 4.777344 -6.160156 4.722656 -6.546875 4.613281 -6.761719 C 4.429688 -7.125 4.046875 -7.308594 3.46875 -7.308594 C 3.191406 -7.308594 2.925781 -7.238281 2.675781 -7.097656 C 2.425781 -6.949219 2.304688 -6.75 2.304688 -6.496094 C 2.304688 -6.429688 2.316406 -6.320312 2.34375 -6.164062 C 2.371094 -6.011719 2.382812 -5.910156 2.382812 -5.867188 C 2.382812 -5.5625 2.285156 -5.351562 2.082031 -5.234375 C 1.96875 -5.164062 1.832031 -5.128906 1.675781 -5.128906 C 1.433594 -5.128906 1.246094 -5.207031 1.113281 -5.367188 C 0.984375 -5.527344 0.917969 -5.703125 0.917969 -5.898438 C 0.917969 -6.28125 1.152344 -6.675781 1.625 -7.09375 C 2.09375 -7.507812 2.78125 -7.714844 3.6875 -7.714844 C 4.738281 -7.714844 5.453125 -7.375 5.828125 -6.691406 C 6.027344 -6.316406 6.128906 -5.769531 6.128906 -5.054688 L 6.128906 -1.789062 C 6.128906 -1.476562 6.148438 -1.257812 6.191406 -1.140625 C 6.261719 -0.929688 6.410156 -0.820312 6.632812 -0.820312 C 6.757812 -0.820312 6.859375 -0.839844 6.941406 -0.878906 C 7.023438 -0.917969 7.164062 -1.007812 7.363281 -1.15625 L 7.363281 -0.734375 C 7.191406 -0.523438 7.003906 -0.347656 6.804688 -0.210938 C 6.5 -0.00390625 6.191406 0.0976562 5.875 0.0976562 C 5.507812 0.0976562 5.238281 -0.0234375 5.074219 -0.261719 C 4.910156 -0.5 4.816406 -0.785156 4.800781 -1.113281 C 4.390625 -0.757812 4.035156 -0.492188 3.742188 -0.316406 C 3.25 -0.0234375 2.78125 0.121094 2.335938 0.121094 C 1.871094 0.121094 1.464844 -0.0429688 1.125 -0.371094 C 0.78125 -0.699219 0.609375 -1.113281 0.609375 -1.621094 Z "/>
</g>
<g id="glyph-0-1">
<path d="M 1.636719 1.503906 C 1.636719 1.960938 1.890625 2.277344 2.40625 2.449219 C 2.917969 2.625 3.503906 2.710938 4.167969 2.710938 C 5.066406 2.710938 5.800781 2.554688 6.363281 2.242188 C 6.929688 1.929688 7.210938 1.546875 7.210938 1.089844 C 7.210938 0.726562 6.984375 0.484375 6.527344 0.367188 C 6.246094 0.296875 5.710938 0.253906 4.921875 0.246094 C 4.722656 0.238281 4.511719 0.230469 4.289062 0.222656 C 4.066406 0.214844 3.863281 0.207031 3.679688 0.195312 C 3.558594 0.191406 3.367188 0.167969 3.101562 0.128906 C 2.835938 0.09375 2.636719 0.0585938 2.507812 0.03125 C 2.441406 0.03125 2.28125 0.203125 2.027344 0.546875 C 1.765625 0.894531 1.636719 1.210938 1.636719 1.503906 Z M 2.695312 -2.734375 C 2.199219 -2.898438 1.816406 -3.1875 1.542969 -3.605469 C 1.269531 -4.023438 1.132812 -4.492188 1.132812 -5.011719 C 1.132812 -5.648438 1.382812 -6.25 1.886719 -6.820312 C 2.390625 -7.390625 3.105469 -7.675781 4.027344 -7.675781 C 4.425781 -7.675781 4.859375 -7.582031 5.339844 -7.394531 C 5.816406 -7.207031 6.273438 -7.113281 6.714844 -7.113281 C 6.828125 -7.113281 7 -7.117188 7.230469 -7.125 C 7.460938 -7.132812 7.628906 -7.136719 7.730469 -7.136719 L 7.828125 -7.136719 L 7.828125 -6.476562 L 6.421875 -6.476562 C 6.519531 -6.25 6.59375 -6.050781 6.648438 -5.882812 C 6.742188 -5.570312 6.789062 -5.269531 6.789062 -4.988281 C 6.789062 -4.371094 6.53125 -3.800781 6.019531 -3.285156 C 5.507812 -2.765625 4.816406 -2.507812 3.945312 -2.507812 C 3.8125 -2.507812 3.566406 -2.53125 3.214844 -2.578125 C 3.058594 -2.578125 2.851562 -2.445312 2.59375 -2.179688 C 2.335938 -1.914062 2.207031 -1.699219 2.207031 -1.53125 C 2.207031 -1.355469 2.394531 -1.230469 2.773438 -1.148438 C 3.023438 -1.09375 3.300781 -1.066406 3.605469 -1.066406 C 5 -1.066406 5.945312 -0.988281 6.445312 -0.832031 C 7.265625 -0.574219 7.675781 -0.0273438 7.675781 0.8125 C 7.675781 1.671875 7.195312 2.355469 6.238281 2.863281 C 5.28125 3.375 4.3125 3.628906 3.335938 3.628906 C 2.445312 3.628906 1.742188 3.449219 1.222656 3.089844 C 0.699219 2.726562 0.441406 2.347656 0.441406 1.953125 C 0.441406 1.757812 0.507812 1.566406 0.648438 1.378906 C 0.785156 1.191406 1.058594 0.914062 1.464844 0.546875 L 2.003906 0.0664062 L 2.101562 -0.03125 C 1.851562 -0.128906 1.664062 -0.226562 1.539062 -0.316406 C 1.320312 -0.484375 1.210938 -0.679688 1.210938 -0.894531 C 1.210938 -1.097656 1.304688 -1.316406 1.492188 -1.558594 C 1.679688 -1.800781 2.082031 -2.191406 2.695312 -2.734375 Z M 4.238281 -2.898438 C 4.539062 -2.898438 4.789062 -2.980469 4.988281 -3.140625 C 5.3125 -3.402344 5.476562 -3.855469 5.476562 -4.5 C 5.476562 -5.015625 5.34375 -5.597656 5.082031 -6.242188 C 4.820312 -6.886719 4.382812 -7.210938 3.769531 -7.210938 C 3.238281 -7.210938 2.871094 -6.957031 2.667969 -6.453125 C 2.566406 -6.1875 2.515625 -5.859375 2.515625 -5.46875 C 2.515625 -4.808594 2.675781 -4.210938 2.996094 -3.6875 C 3.316406 -3.160156 3.730469 -2.898438 4.238281 -2.898438 Z "/>
</g>
<g id="glyph-0-2">
<path d="M 1.367188 -10.507812 C 1.367188 -10.738281 1.449219 -10.941406 1.613281 -11.109375 C 1.773438 -11.277344 1.976562 -11.359375 2.214844 -11.359375 C 2.449219 -11.359375 2.644531 -11.277344 2.8125 -11.113281 C 2.976562 -10.949219 3.058594 -10.746094 3.058594 -10.507812 C 3.058594 -10.273438 2.976562 -10.074219 2.8125 -9.910156 C 2.648438 -9.742188 2.445312 -9.660156 2.214844 -9.660156 C 1.976562 -9.660156 1.773438 -9.742188 1.613281 -9.910156 C 1.449219 -10.074219 1.367188 -10.273438 1.367188 -10.507812 Z M 0.324219 -0.226562 C 0.90625 -0.28125 1.273438 -0.382812 1.425781 -0.523438 C 1.578125 -0.667969 1.652344 -1.058594 1.652344 -1.691406 L 1.652344 -5.574219 C 1.652344 -5.925781 1.628906 -6.171875 1.578125 -6.308594 C 1.496094 -6.53125 1.328125 -6.640625 1.066406 -6.640625 C 1.007812 -6.640625 0.949219 -6.636719 0.890625 -6.625 C 0.835938 -6.613281 0.671875 -6.570312 0.398438 -6.496094 L 0.398438 -6.746094 L 0.75 -6.859375 C 1.699219 -7.167969 2.359375 -7.402344 2.734375 -7.558594 C 2.886719 -7.625 2.984375 -7.65625 3.027344 -7.65625 C 3.039062 -7.621094 3.042969 -7.578125 3.042969 -7.535156 L 3.042969 -1.691406 C 3.042969 -1.074219 3.117188 -0.6875 3.265625 -0.527344 C 3.417969 -0.371094 3.753906 -0.269531 4.28125 -0.226562 L 4.28125 0 L 0.324219 0 Z "/>
</g>
<g id="glyph-0-3">
<path d="M 0.300781 -0.226562 C 0.6875 -0.277344 0.957031 -0.371094 1.109375 -0.515625 C 1.265625 -0.660156 1.34375 -0.980469 1.34375 -1.480469 L 1.34375 -5.605469 C 1.34375 -5.953125 1.308594 -6.199219 1.246094 -6.339844 C 1.140625 -6.546875 0.929688 -6.648438 0.609375 -6.648438 C 0.5625 -6.648438 0.511719 -6.644531 0.460938 -6.640625 C 0.410156 -6.636719 0.34375 -6.628906 0.269531 -6.617188 L 0.269531 -6.902344 C 0.492188 -6.964844 1.015625 -7.132812 1.847656 -7.40625 L 2.613281 -7.65625 C 2.652344 -7.65625 2.671875 -7.644531 2.679688 -7.617188 C 2.6875 -7.589844 2.695312 -7.550781 2.695312 -7.503906 L 2.695312 -6.308594 C 3.195312 -6.773438 3.582031 -7.09375 3.867188 -7.265625 C 4.289062 -7.53125 4.726562 -7.667969 5.183594 -7.667969 C 5.554688 -7.667969 5.890625 -7.558594 6.191406 -7.347656 C 6.777344 -6.9375 7.070312 -6.203125 7.070312 -5.144531 L 7.070312 -1.34375 C 7.070312 -0.953125 7.152344 -0.671875 7.308594 -0.496094 C 7.464844 -0.324219 7.730469 -0.234375 8.097656 -0.226562 L 8.097656 0 L 4.621094 0 L 4.621094 -0.226562 C 5.019531 -0.28125 5.296875 -0.390625 5.453125 -0.558594 C 5.609375 -0.722656 5.6875 -1.082031 5.6875 -1.636719 L 5.6875 -5.109375 C 5.6875 -5.578125 5.601562 -5.964844 5.429688 -6.269531 C 5.253906 -6.578125 4.933594 -6.730469 4.46875 -6.730469 C 4.148438 -6.730469 3.820312 -6.621094 3.492188 -6.40625 C 3.308594 -6.28125 3.066406 -6.074219 2.773438 -5.785156 L 2.773438 -1.230469 C 2.773438 -0.839844 2.863281 -0.578125 3.035156 -0.445312 C 3.210938 -0.3125 3.484375 -0.238281 3.859375 -0.226562 L 3.859375 0 L 0.300781 0 Z "/>
</g>
<g id="glyph-0-4">
<rect x="0" y="0" width="0" height="0" mask="url(#mask-0)"/>
</g>
<g id="glyph-0-5">
<path d="M 3.945312 -7.691406 C 4.34375 -7.691406 4.707031 -7.605469 5.039062 -7.429688 C 5.253906 -7.316406 5.464844 -7.160156 5.664062 -6.957031 L 5.664062 -9.546875 C 5.664062 -9.878906 5.628906 -10.105469 5.554688 -10.230469 C 5.480469 -10.355469 5.304688 -10.417969 5.03125 -10.417969 C 4.964844 -10.417969 4.90625 -10.414062 4.859375 -10.410156 C 4.808594 -10.402344 4.699219 -10.390625 4.53125 -10.375 L 4.53125 -10.644531 L 5.199219 -10.816406 C 5.445312 -10.882812 5.6875 -10.949219 5.933594 -11.019531 C 6.175781 -11.089844 6.390625 -11.15625 6.574219 -11.222656 C 6.660156 -11.25 6.804688 -11.300781 7.007812 -11.378906 L 7.054688 -11.359375 L 7.039062 -10.507812 C 7.035156 -10.199219 7.027344 -9.878906 7.023438 -9.550781 C 7.019531 -9.222656 7.015625 -8.898438 7.015625 -8.578125 L 7 -1.929688 C 7 -1.578125 7.042969 -1.328125 7.128906 -1.1875 C 7.214844 -1.046875 7.445312 -0.976562 7.820312 -0.976562 C 7.878906 -0.976562 7.941406 -0.976562 8 -0.980469 C 8.058594 -0.984375 8.121094 -0.988281 8.179688 -1 L 8.179688 -0.734375 C 8.148438 -0.722656 7.753906 -0.585938 7 -0.324219 L 5.722656 0.15625 L 5.664062 0.0820312 L 5.664062 -0.917969 C 5.359375 -0.589844 5.097656 -0.351562 4.875 -0.210938 C 4.480469 0.03125 4.019531 0.15625 3.5 0.15625 C 2.578125 0.15625 1.828125 -0.203125 1.257812 -0.914062 C 0.683594 -1.628906 0.398438 -2.453125 0.398438 -3.394531 C 0.398438 -4.570312 0.742188 -5.582031 1.429688 -6.425781 C 2.113281 -7.269531 2.953125 -7.691406 3.945312 -7.691406 Z M 4.25 -0.722656 C 4.671875 -0.722656 5.011719 -0.847656 5.273438 -1.097656 C 5.535156 -1.347656 5.664062 -1.585938 5.664062 -1.808594 L 5.664062 -5.296875 C 5.664062 -6.003906 5.476562 -6.5 5.097656 -6.792969 C 4.722656 -7.082031 4.355469 -7.226562 3.996094 -7.226562 C 3.3125 -7.226562 2.78125 -6.925781 2.402344 -6.320312 C 2.023438 -5.714844 1.832031 -4.96875 1.832031 -4.085938 C 1.832031 -3.210938 2.03125 -2.433594 2.4375 -1.75 C 2.839844 -1.066406 3.445312 -0.722656 4.25 -0.722656 Z "/>
</g>
</g>
<image id="source-9" x="0" y="0" width="0" height="0"/>
<mask id="mask-0">
<use xlink:href="#source-9"/>
</mask>
</defs>
<g fill="rgb(100%, 100%, 0%)" fill-opacity="1">
<use xlink:href="#glyph-0-0" x="30" y="32.5"/>
<use xlink:href="#glyph-0-1" x="37" y="32.5"/>
<use xlink:href="#glyph-0-0" x="45" y="32.5"/>
<use xlink:href="#glyph-0-2" x="52" y="32.5"/>
<use xlink:href="#glyph-0-3" x="57" y="32.5"/>
<use xlink:href="#glyph-0-4" x="65" y="32.5"/>
<use xlink:href="#glyph-0-0" x="69" y="32.5"/>
<use xlink:href="#glyph-0-3" x="76" y="32.5"/>
<use xlink:href="#glyph-0-5" x="84" y="32.5"/>
<use xlink:href="#glyph-0-4" x="92" y="32.5"/>
<use xlink:href="#glyph-0-0" x="96" y="32.5"/>
<use xlink:href="#glyph-0-1" x="103" y="32.5"/>
<use xlink:href="#glyph-0-0" x="111" y="32.5"/>
<use xlink:href="#glyph-0-2" x="118" y="32.5"/>
<use xlink:href="#glyph-0-3" x="123" y="32.5"/>
</g>
</svg>
